# Blender v2.91.0 OBJ File: 'testcar.blend'
# www.blender.org
mtllib testcar.mtl
o Cube
v 0.890967 2.177382 -1.000000
v 1.434144 0.944608 -1.000000
v 0.890967 2.177382 1.000000
v 1.434144 0.944608 1.000000
v -1.000000 1.377650 -1.000000
v -2.092565 0.944608 -1.000000
v -1.000000 1.377650 1.000000
v -2.092565 0.944608 1.000000
v 1.434144 0.475571 -1.000000
v 1.434144 0.475571 1.000000
v -2.092565 0.475571 -1.000000
v -2.092565 0.475571 1.000000
v -0.482565 2.177382 1.000000
v -0.482565 2.177382 -1.000000
v -1.064652 0.358836 1.160496
v -1.064652 0.358836 0.838107
v 1.107033 0.655215 1.160496
v 1.107033 0.655215 0.838107
v 0.810654 0.777979 1.160496
v 0.810654 0.777979 0.838107
v 0.514275 0.655215 1.160496
v 0.514275 0.655215 0.838107
v 0.391511 0.358836 1.160496
v 0.391511 0.358836 0.838107
v 0.514275 0.062457 1.160496
v 0.514275 0.062457 0.838107
v 0.810654 -0.060308 1.160496
v 0.810654 -0.060308 0.838107
v 1.107033 0.062457 1.160496
v 1.107033 0.062457 0.838107
v 1.229798 0.358836 0.838107
v 1.229798 0.358836 1.160496
v -1.187416 0.062457 0.838107
v -1.187416 0.062457 1.160496
v -1.483795 -0.060308 0.838107
v -1.483795 -0.060308 1.160496
v -1.780175 0.062457 0.838107
v -1.780175 0.062457 1.160496
v -1.902939 0.358836 0.838107
v -1.902939 0.358836 1.160496
v -1.780174 0.655215 0.838107
v -1.780174 0.655215 1.160496
v -1.483795 0.777979 0.838107
v -1.483795 0.777979 1.160496
v -1.187416 0.655215 0.838107
v -1.187416 0.655215 1.160496
v 1.107033 0.655215 -0.828409
v 1.107033 0.655215 -1.150798
v 0.810654 0.777979 -0.828409
v 0.810654 0.777979 -1.150798
v 0.514275 0.655215 -0.828409
v 0.514275 0.655215 -1.150798
v 0.391511 0.358836 -0.828409
v 0.391511 0.358836 -1.150798
v 0.514275 0.062457 -0.828409
v 0.514275 0.062457 -1.150798
v 0.810654 -0.060308 -0.828409
v 0.810654 -0.060308 -1.150798
v 1.107033 0.062457 -0.828409
v 1.107033 0.062457 -1.150798
v 1.229798 0.358836 -1.150798
v 1.229798 0.358836 -0.828409
v -1.060570 0.655215 -0.828409
v -1.060571 0.655215 -1.150798
v -1.356950 0.777979 -0.828409
v -1.356950 0.777979 -1.150798
v -1.653329 0.655215 -0.828409
v -1.653329 0.655215 -1.150798
v -1.776093 0.358836 -0.828409
v -1.776093 0.358836 -1.150798
v -1.653329 0.062457 -0.828409
v -1.653329 0.062457 -1.150798
v -1.356950 -0.060308 -0.828409
v -1.356950 -0.060308 -1.150798
v -1.060570 0.062457 -0.828409
v -1.060570 0.062457 -1.150798
v -0.937806 0.358836 -1.150798
v -0.937806 0.358836 -0.828409
vt 0.375000 0.750000
vt 0.625000 0.750000
vt 0.625000 0.875000
vt 0.625000 1.000000
vt 0.375000 1.000000
vt 0.375000 0.000000
vt 0.625000 0.000000
vt 0.625000 0.250000
vt 0.375000 0.250000
vt 0.375000 0.500000
vt 0.375000 0.500000
vt 0.375000 0.250000
vt 0.625000 0.500000
vt 0.625000 0.375000
vt 0.125000 0.500000
vt 0.375000 0.750000
vt 0.125000 0.750000
vt 0.375000 1.000000
vt 0.375000 0.000000
vt 0.419706 0.419706
vt 0.250000 0.490000
vt 0.080294 0.419706
vt 0.010000 0.250000
vt 0.080294 0.080294
vt 0.250000 0.010000
vt 0.419706 0.080294
vt 0.490000 0.250000
vt 1.000000 0.500000
vt 1.000000 1.000000
vt 0.875000 1.000000
vt 0.875000 0.500000
vt 0.375000 0.500000
vt 0.375000 1.000000
vt 0.250000 1.000000
vt 0.250000 0.500000
vt 0.750000 0.500000
vt 0.750000 1.000000
vt 0.625000 1.000000
vt 0.625000 0.500000
vt 0.500000 0.500000
vt 0.500000 1.000000
vt 0.750000 0.490000
vt 0.919706 0.419706
vt 0.990000 0.250000
vt 0.919706 0.080294
vt 0.750000 0.010000
vt 0.580294 0.080294
vt 0.510000 0.250000
vt 0.580294 0.419706
vt 0.625000 0.500000
vt 0.625000 1.000000
vt 0.500000 1.000000
vt 0.500000 0.500000
vt 0.750000 0.490000
vt 0.919706 0.419706
vt 0.990000 0.250000
vt 0.919706 0.080294
vt 0.750000 0.010000
vt 0.580294 0.080294
vt 0.510000 0.250000
vt 0.580294 0.419706
vt 0.750000 0.500000
vt 0.750000 1.000000
vt 0.375000 1.000000
vt 0.375000 0.500000
vt 0.125000 0.500000
vt 0.125000 1.000000
vt 0.000000 1.000000
vt 0.000000 0.500000
vt 0.875000 0.500000
vt 0.875000 1.000000
vt 0.250000 1.000000
vt 0.250000 0.500000
vt 0.125000 0.500000
vt 0.125000 1.000000
vt 0.000000 1.000000
vt 0.000000 0.500000
vt 1.000000 0.500000
vt 1.000000 1.000000
vt 0.419706 0.419706
vt 0.250000 0.490000
vt 0.080294 0.419706
vt 0.010000 0.250000
vt 0.080294 0.080294
vt 0.250000 0.010000
vt 0.419706 0.080294
vt 0.490000 0.250000
vt 1.000000 0.500000
vt 1.000000 1.000000
vt 0.875000 1.000000
vt 0.875000 0.500000
vt 0.750000 0.500000
vt 0.750000 1.000000
vt 0.625000 1.000000
vt 0.625000 0.500000
vt 0.750000 0.490000
vt 0.919706 0.419706
vt 0.990000 0.250000
vt 0.919706 0.080294
vt 0.750000 0.010000
vt 0.580294 0.080294
vt 0.510000 0.250000
vt 0.580294 0.419706
vt 0.500000 1.000000
vt 0.500000 0.500000
vt 0.375000 1.000000
vt 0.375000 0.500000
vt 0.250000 1.000000
vt 0.250000 0.500000
vt 0.125000 0.500000
vt 0.125000 1.000000
vt 0.000000 1.000000
vt 0.000000 0.500000
vt 0.419706 0.419706
vt 0.250000 0.490000
vt 0.080294 0.419706
vt 0.010000 0.250000
vt 0.080294 0.080294
vt 0.250000 0.010000
vt 0.419706 0.080294
vt 0.490000 0.250000
vt 1.000000 0.500000
vt 1.000000 1.000000
vt 0.875000 1.000000
vt 0.875000 0.500000
vt 0.750000 0.500000
vt 0.750000 1.000000
vt 0.625000 1.000000
vt 0.625000 0.500000
vt 0.750000 0.490000
vt 0.919706 0.419706
vt 0.990000 0.250000
vt 0.919706 0.080294
vt 0.750000 0.010000
vt 0.580294 0.080294
vt 0.510000 0.250000
vt 0.580294 0.419706
vt 0.500000 1.000000
vt 0.500000 0.500000
vt 0.375000 1.000000
vt 0.375000 0.500000
vt 0.250000 1.000000
vt 0.250000 0.500000
vt 0.125000 0.500000
vt 0.125000 1.000000
vt 0.000000 1.000000
vt 0.000000 0.500000
vt 0.419706 0.419706
vt 0.250000 0.490000
vt 0.080294 0.419706
vt 0.010000 0.250000
vt 0.080294 0.080294
vt 0.250000 0.010000
vt 0.419706 0.080294
vt 0.490000 0.250000
vn 0.0000 0.0000 1.0000
vn -0.3685 0.9296 0.0000
vn 0.0000 0.0000 -1.0000
vn 0.9151 0.4032 0.0000
vn 0.0000 -1.0000 0.0000
vn -1.0000 0.0000 0.0000
vn 1.0000 0.0000 0.0000
vn -0.8396 0.5432 0.0000
vn 0.0000 1.0000 0.0000
vn 0.9239 -0.3827 -0.0000
vn -0.3827 0.9239 0.0000
vn -0.3827 -0.9239 0.0000
vn -0.9239 0.3827 0.0000
vn -0.9239 -0.3827 0.0000
vn 0.9239 0.3827 -0.0000
vn 0.3827 -0.9239 0.0000
vn 0.3827 0.9239 -0.0000
usemtl Material
s off
f 4/1/1 3/2/1 13/3/1 7/4/1 8/5/1
f 8/6/2 7/7/2 5/8/2 6/9/2
f 6/9/3 2/10/3 9/11/3 11/12/3
f 2/10/4 1/13/4 3/2/4 4/1/4
f 6/9/3 5/8/3 14/14/3 1/13/3 2/10/3
f 11/15/5 9/11/5 10/16/5 12/17/5
f 4/1/1 8/5/1 12/18/1 10/16/1
f 8/6/6 6/9/6 11/12/6 12/19/6
f 2/10/7 4/1/7 10/16/7 9/11/7
f 13/3/8 14/14/8 5/8/8 7/7/8
f 1/13/9 14/14/9 13/3/9 3/2/9
f 34/20/1 15/21/1 46/22/1 44/23/1 42/24/1 40/25/1 38/26/1 36/27/1
f 31/28/10 32/29/10 29/30/10 30/31/10
f 41/32/11 42/33/11 44/34/11 43/35/11
f 28/36/12 27/37/12 25/38/12 26/39/12
f 39/40/13 40/41/13 42/33/13 41/32/13
f 31/42/3 30/43/3 28/44/3 26/45/3 24/46/3 22/47/3 20/48/3 18/49/3
f 37/50/14 38/51/14 40/41/14 39/40/14
f 26/39/14 25/38/14 23/52/14 24/53/14
f 16/54/3 33/55/3 35/56/3 37/57/3 39/58/3 41/59/3 43/60/3 45/61/3
f 35/62/12 36/63/12 38/51/12 37/50/12
f 24/53/13 23/52/13 21/64/13 22/65/13
f 45/66/15 46/67/15 15/68/15 16/69/15
f 33/70/16 34/71/16 36/63/16 35/62/16
f 22/65/11 21/64/11 19/72/11 20/73/11
f 18/74/15 17/75/15 32/76/15 31/77/15
f 16/78/10 15/79/10 34/71/10 33/70/10
f 29/80/1 32/81/1 17/82/1 19/83/1 21/84/1 23/85/1 25/86/1 27/87/1
f 43/35/17 44/34/17 46/67/17 45/66/17
f 30/31/16 29/30/16 27/37/16 28/36/16
f 20/73/17 19/72/17 17/75/17 18/74/17
f 61/88/10 62/89/10 59/90/10 60/91/10
f 58/92/12 57/93/12 55/94/12 56/95/12
f 61/96/3 60/97/3 58/98/3 56/99/3 54/100/3 52/101/3 50/102/3 48/103/3
f 56/95/14 55/94/14 53/104/14 54/105/14
f 54/105/13 53/104/13 51/106/13 52/107/13
f 52/107/11 51/106/11 49/108/11 50/109/11
f 48/110/15 47/111/15 62/112/15 61/113/15
f 59/114/1 62/115/1 47/116/1 49/117/1 51/118/1 53/119/1 55/120/1 57/121/1
f 60/91/16 59/90/16 57/93/16 58/92/16
f 50/109/17 49/108/17 47/111/17 48/110/17
f 77/122/10 78/123/10 75/124/10 76/125/10
f 74/126/12 73/127/12 71/128/12 72/129/12
f 77/130/3 76/131/3 74/132/3 72/133/3 70/134/3 68/135/3 66/136/3 64/137/3
f 72/129/14 71/128/14 69/138/14 70/139/14
f 70/139/13 69/138/13 67/140/13 68/141/13
f 68/141/11 67/140/11 65/142/11 66/143/11
f 64/144/15 63/145/15 78/146/15 77/147/15
f 75/148/1 78/149/1 63/150/1 65/151/1 67/152/1 69/153/1 71/154/1 73/155/1
f 76/125/16 75/124/16 73/127/16 74/126/16
f 66/143/17 65/142/17 63/145/17 64/144/17
