# Blender v2.91.0 OBJ File: ''
# www.blender.org
mtllib untitled.mtl
o Cube.001
v 1.434144 0.944608 1.000000
v 0.890967 2.177382 1.000000
v -0.482565 2.177382 1.000000
v -1.000000 1.377650 1.000000
v -2.092565 0.944608 1.000000
v 1.434144 0.475571 1.000000
v -2.092565 0.475571 1.000000
v -1.060571 0.655215 1.160496
v -1.356950 0.777979 1.160496
v -1.653329 0.655215 1.160496
v -1.776093 0.358836 1.160496
v -1.060571 0.655215 0.838107
v -1.356950 0.777979 0.838107
v -1.653329 0.655215 0.838107
v -1.776093 0.358836 0.838107
v -1.653329 0.062457 0.838107
v -1.653329 0.062457 1.160496
v -1.356950 -0.060308 1.160496
v -1.356950 -0.060308 0.838107
v -1.060571 0.062457 0.838107
v -1.060571 0.062457 1.160496
v -0.937806 0.358836 1.160496
v -0.937806 0.358836 0.838107
v -1.000000 0.944608 1.000000
v -1.557227 0.944608 1.000000
v 0.230027 0.944608 1.000000
v -1.356950 0.358836 1.160496
v -1.356950 0.358836 0.838107
v -1.557227 0.475571 1.000000
v -1.000000 0.475571 1.000000
v 0.230027 0.475571 1.000000
v 1.107033 0.655215 1.160496
v 0.810654 0.777979 1.160496
v 0.514275 0.655215 1.160496
v 0.391511 0.358836 1.160495
v 1.107033 0.655215 0.838107
v 0.810654 0.777979 0.838107
v 0.514275 0.655215 0.838107
v 0.391511 0.358836 0.838106
v 0.514275 0.062457 0.838106
v 0.514275 0.062457 1.160495
v 0.810654 -0.060308 1.160495
v 0.810654 -0.060308 0.838106
v 1.107033 0.062457 0.838106
v 1.107033 0.062457 1.160495
v 1.229798 0.358836 1.160495
v 1.229798 0.358836 0.838106
v 0.810654 0.358835 1.160495
v 0.810654 0.358835 0.838106
v 1.434144 0.944608 -1.000000
v 0.890967 2.177382 -1.000000
v -0.482565 2.177382 -1.000000
v -1.000000 1.377650 -1.000000
v -2.092565 0.944608 -1.000000
v 1.434144 0.475571 -1.000000
v -2.092565 0.475571 -1.000000
v -1.060571 0.655215 -1.160495
v -1.356950 0.777979 -1.160495
v -1.653329 0.655215 -1.160495
v -1.776093 0.358836 -1.160496
v -1.060571 0.655215 -0.838106
v -1.356950 0.777979 -0.838106
v -1.653329 0.655215 -0.838106
v -1.776093 0.358836 -0.838106
v -1.653329 0.062457 -0.838107
v -1.653329 0.062457 -1.160496
v -1.356950 -0.060308 -1.160496
v -1.356950 -0.060308 -0.838107
v -1.060571 0.062457 -0.838107
v -1.060571 0.062457 -1.160496
v -0.937806 0.358836 -1.160496
v -0.937806 0.358836 -0.838106
v -1.000000 0.944608 -1.000000
v -1.557227 0.944608 -1.000000
v 0.230027 0.944608 -1.000000
v -1.356950 0.358836 -1.160496
v -1.356950 0.358836 -0.838106
v -1.557227 0.475571 -1.000000
v -1.000000 0.475571 -1.000000
v 0.230027 0.475571 -1.000000
v -1.000000 1.377650 0.000000
v -2.092565 0.944608 0.000000
v 1.434144 0.475571 0.000000
v -2.092565 0.475571 0.000000
v 1.434144 0.944608 0.000000
v 0.890967 2.177382 0.000000
v -0.482565 2.177382 0.000000
v 1.107033 0.655215 -1.160495
v 0.810654 0.777979 -1.160495
v 0.514275 0.655215 -1.160495
v 0.391511 0.358836 -1.160495
v 1.107033 0.655215 -0.838106
v 0.810654 0.777979 -0.838106
v 0.514275 0.655215 -0.838106
v 0.391511 0.358836 -0.838106
v 0.514275 0.062457 -0.838106
v 0.514275 0.062457 -1.160495
v 0.810654 -0.060308 -1.160495
v 0.810654 -0.060308 -0.838106
v 1.107033 0.062457 -0.838106
v 1.107033 0.062457 -1.160495
v 1.229798 0.358836 -1.160495
v 1.229798 0.358836 -0.838106
v 0.810654 0.358836 -1.160495
v 0.810654 0.358836 -0.838106
vt 0.356542 0.749740
vt 0.354949 0.852530
vt 0.282732 0.821298
vt 0.253752 0.748148
vt 0.358133 0.646950
vt 0.284984 0.675931
vt 0.126018 0.389569
vt 0.124426 0.492359
vt 0.021636 0.490767
vt 0.052869 0.418550
vt 0.195984 0.566168
vt 0.122834 0.595149
vt 0.227216 0.493951
vt 0.133313 0.731138
vt 0.131721 0.833928
vt 0.059504 0.802696
vt 0.030523 0.729546
vt 0.134905 0.628348
vt 0.061756 0.657329
vt 0.126018 0.157039
vt 0.124426 0.259830
vt 0.021636 0.258237
vt 0.052869 0.186020
vt 0.195984 0.333639
vt 0.122834 0.362619
vt 0.227216 0.261422
vt 0.356542 0.749740
vt 0.253752 0.748148
vt 0.282732 0.821298
vt 0.354949 0.852530
vt 0.358133 0.646950
vt 0.284984 0.675931
vt 0.126018 0.389569
vt 0.052869 0.418550
vt 0.021636 0.490767
vt 0.124426 0.492359
vt 0.195984 0.566168
vt 0.227216 0.493951
vt 0.122834 0.595149
vt 0.133313 0.731138
vt 0.030523 0.729546
vt 0.059504 0.802696
vt 0.131721 0.833928
vt 0.134905 0.628348
vt 0.061756 0.657329
vt 0.126018 0.157039
vt 0.052869 0.186020
vt 0.021636 0.258237
vt 0.124426 0.259830
vt 0.195984 0.333639
vt 0.227216 0.261422
vt 0.122834 0.362619
vt 0.360447 0.582454
vt 0.473666 0.582454
vt 0.473666 0.670441
vt 0.251676 0.582454
vt 0.472035 0.873202
vt 0.600249 0.873202
vt 0.600249 0.968378
vt 0.472035 0.968378
vt 0.091738 0.873202
vt 0.427394 0.873202
vt 0.427394 0.968378
vt 0.312792 0.968378
vt 0.195724 0.968378
vt 0.142689 0.968378
vt 0.091738 0.968378
vt 0.730976 0.873202
vt 0.730976 0.968378
vt 0.494141 0.434570
vt 0.705078 0.434570
vt 0.705078 0.408203
vt 0.494141 0.408203
vt 0.494141 0.301758
vt 0.705078 0.301758
vt 0.705078 0.275391
vt 0.494141 0.275391
vt 0.494141 0.329102
vt 0.705078 0.329102
vt 0.494141 0.355469
vt 0.705078 0.355469
vt 0.705078 0.381836
vt 0.494141 0.381836
vt 0.705078 0.249023
vt 0.494141 0.249023
vt 0.968244 0.582454
vt 0.857879 0.832933
vt 0.578801 0.832933
vt 0.723587 0.582454
vt 0.494141 0.460938
vt 0.705078 0.460938
vt 0.430351 0.678183
vt 0.459332 0.751332
vt 0.428099 0.823549
vt 0.198235 0.420801
vt 0.050617 0.563917
vt 0.251676 0.487154
vt 0.360447 0.487154
vt 0.473666 0.487154
vt 0.723587 0.487154
vt 0.968244 0.487154
vt 0.821633 0.873202
vt 0.821633 0.968378
vt 0.047098 0.968378
vt 0.047098 0.873202
vt 0.933489 0.968378
vt 0.933489 0.873202
vt 0.251080 0.433702
vt 0.461887 0.433702
vt 0.461887 0.407197
vt 0.251080 0.407197
vt 0.251080 0.301176
vt 0.461887 0.301175
vt 0.461887 0.274670
vt 0.251080 0.274670
vt 0.251080 0.327681
vt 0.461887 0.327681
vt 0.251080 0.354186
vt 0.461887 0.354186
vt 0.461887 0.380691
vt 0.251080 0.380691
vt 0.461887 0.248165
vt 0.251080 0.248165
vt 0.251080 0.460207
vt 0.461887 0.460207
vt 0.207122 0.659580
vt 0.236103 0.732730
vt 0.204871 0.804947
vt 0.198235 0.188272
vt 0.050617 0.331387
vt 0.360447 0.582454
vt 0.251676 0.582454
vt 0.473666 0.670441
vt 0.473666 0.582454
vt 0.472035 0.968378
vt 0.600249 0.968378
vt 0.091738 0.968378
vt 0.142689 0.968378
vt 0.195724 0.968378
vt 0.312792 0.968378
vt 0.427394 0.968378
vt 0.730976 0.968378
vt 0.494141 0.434570
vt 0.494141 0.408203
vt 0.705078 0.408203
vt 0.705078 0.434570
vt 0.494141 0.301758
vt 0.494141 0.275391
vt 0.705078 0.275391
vt 0.705078 0.301758
vt 0.494141 0.329102
vt 0.705078 0.329102
vt 0.494141 0.355469
vt 0.705078 0.355469
vt 0.494141 0.381836
vt 0.705078 0.381836
vt 0.494141 0.249023
vt 0.705078 0.249023
vt 0.968244 0.582454
vt 0.723587 0.582454
vt 0.578801 0.832933
vt 0.857879 0.832933
vt 0.494141 0.460938
vt 0.705078 0.460938
vt 0.459332 0.751332
vt 0.430351 0.678183
vt 0.428099 0.823549
vt 0.198235 0.420801
vt 0.050617 0.563917
vt 0.360447 0.487154
vt 0.251676 0.487154
vt 0.473666 0.487154
vt 0.723587 0.487154
vt 0.968244 0.487154
vt 0.821633 0.968378
vt 0.047098 0.968378
vt 0.933489 0.968378
vt 0.251080 0.433702
vt 0.251080 0.407197
vt 0.461887 0.407197
vt 0.461887 0.433702
vt 0.251080 0.301176
vt 0.251080 0.274670
vt 0.461887 0.274670
vt 0.461887 0.301175
vt 0.251080 0.327681
vt 0.461887 0.327681
vt 0.251080 0.354186
vt 0.461887 0.354186
vt 0.251080 0.380691
vt 0.461887 0.380691
vt 0.251080 0.248165
vt 0.461887 0.248165
vt 0.251080 0.460207
vt 0.461887 0.460207
vt 0.236103 0.732730
vt 0.207122 0.659580
vt 0.204871 0.804947
vt 0.198235 0.188272
vt 0.050617 0.331387
vn -0.2231 0.2231 -0.9489
vn -0.2037 0.1949 -0.9594
vn -0.2276 0.2276 -0.9468
vn -0.1949 0.2037 -0.9594
vn 0.2037 0.1949 -0.9594
vn 0.2231 0.2231 -0.9489
vn 0.1949 0.2037 -0.9594
vn 0.2276 0.2276 -0.9468
vn 0.0000 0.0000 1.0000
vn -0.2231 0.2231 0.9489
vn -0.1949 0.2037 0.9594
vn -0.2276 0.2276 0.9468
vn -0.2037 0.1949 0.9594
vn 0.2037 0.1949 0.9594
vn 0.2276 0.2276 0.9468
vn 0.1949 0.2037 0.9594
vn 0.2231 0.2231 0.9489
vn -0.0000 0.0000 -1.0000
vn 0.9151 0.4032 0.0000
vn 0.0000 -1.0000 -0.0000
vn 1.0000 -0.0000 0.0000
vn 0.0000 1.0000 0.0000
vn 0.9239 0.3827 0.0000
vn -0.9239 0.3827 0.0000
vn -0.9239 -0.3827 -0.0000
vn -0.3827 -0.9239 -0.0000
vn 0.9239 -0.3827 -0.0000
vn 0.3827 -0.9239 -0.0000
vn -0.3827 0.9239 0.0000
vn 0.3827 0.9239 0.0000
vn 0.2037 -0.1949 -0.9594
vn 0.2276 -0.2276 -0.9468
vn -0.0000 -0.2201 -0.9755
vn -0.0000 -0.2521 -0.9677
vn -0.2276 -0.2276 -0.9468
vn -0.2037 -0.1949 -0.9594
vn -0.8396 0.5432 0.0000
vn -1.0000 0.0000 0.0000
vn -0.3685 0.9296 0.0000
vn 0.2037 -0.1949 0.9594
vn -0.0000 -0.2521 0.9677
vn -0.0000 -0.2201 0.9755
vn 0.2276 -0.2276 0.9468
vn -0.2276 -0.2276 0.9468
vn -0.2037 -0.1949 0.9594
usemtl Material.001
s off
f 28/1/1 15/2/2 14/3/3 13/4/4
f 23/5/5 28/1/6 13/4/7 12/6/8
f 22/7/9 27/8/9 18/9/9 21/10/9
f 10/11/9 11/12/9 27/8/9 9/13/9
f 49/14/1 39/15/2 38/16/3 37/17/4
f 47/18/5 49/14/6 37/17/7 36/19/8
f 46/20/9 48/21/9 42/22/9 45/23/9
f 34/24/9 35/25/9 48/21/9 33/26/9
f 77/27/10 62/28/11 63/29/12 64/30/13
f 72/31/14 61/32/15 62/28/16 77/27/17
f 71/33/18 70/34/18 67/35/18 76/36/18
f 59/37/18 58/38/18 76/36/18 60/39/18
f 105/40/10 93/41/11 94/42/12 95/43/13
f 103/44/14 92/45/15 93/41/16 105/40/17
f 102/46/18 101/47/18 98/48/18 104/49/18
f 90/50/18 89/51/18 104/49/18 91/52/18
s 1
f 25/53/9 24/54/9 4/55/9 5/56/9
f 85/57/19 86/58/19 2/59/19 1/60/19
f 84/61/20 83/62/20 6/63/20 31/64/20 30/65/20 29/66/20 7/67/20
f 85/57/21 1/60/21 6/63/21 83/62/21
f 86/58/22 87/68/22 3/69/22 2/59/22
f 12/70/23 8/71/23 22/72/23 23/73/23
f 15/74/24 11/75/24 10/76/24 14/77/24
f 16/78/25 17/79/25 11/75/25 15/74/25
f 19/80/26 18/81/26 17/79/26 16/78/26
f 23/73/27 22/72/27 21/82/27 20/83/27
f 20/83/28 21/82/28 18/81/28 19/80/28
f 14/77/29 10/76/29 9/84/29 13/85/29
f 1/86/9 2/87/9 3/88/9 26/89/9
f 4/55/9 24/54/9 26/89/9 3/88/9
f 13/90/30 9/91/30 8/71/30 12/70/30
f 23/5/31 20/92/32 19/93/33 28/1/34
f 16/94/35 15/2/36 28/1/34 19/93/33
f 8/95/9 9/13/9 27/8/9 22/7/9
f 17/96/9 18/9/9 27/8/9 11/12/9
f 5/56/9 7/97/9 29/98/9 25/53/9
f 25/53/9 29/98/9 30/99/9 24/54/9
f 24/54/9 30/99/9 31/100/9 26/89/9
f 6/101/9 1/86/9 26/89/9 31/100/9
f 3/69/37 87/68/37 81/102/37 4/103/37
f 5/104/38 82/105/38 84/61/38 7/67/38
f 5/106/39 4/103/39 81/102/39 82/107/39
f 36/108/23 32/109/23 46/110/23 47/111/23
f 39/112/24 35/113/24 34/114/24 38/115/24
f 40/116/25 41/117/25 35/113/25 39/112/25
f 43/118/26 42/119/26 41/117/26 40/116/26
f 47/111/27 46/110/27 45/120/27 44/121/27
f 44/121/28 45/120/28 42/119/28 43/118/28
f 38/115/29 34/114/29 33/122/29 37/123/29
f 37/124/30 33/125/30 32/109/30 36/108/30
f 47/18/31 44/126/32 43/127/33 49/14/34
f 40/128/35 39/15/36 49/14/34 43/127/33
f 32/129/9 33/26/9 48/21/9 46/20/9
f 41/130/9 42/22/9 48/21/9 35/25/9
f 74/131/18 54/132/18 53/133/18 73/134/18
f 85/57/19 50/135/19 51/136/19 86/58/19
f 84/61/20 56/137/20 78/138/20 79/139/20 80/140/20 55/141/20 83/62/20
f 85/57/21 83/62/21 55/141/21 50/135/21
f 86/58/22 51/136/22 52/142/22 87/68/22
f 61/143/23 72/144/23 71/145/23 57/146/23
f 64/147/24 63/148/24 59/149/24 60/150/24
f 65/151/25 64/147/25 60/150/25 66/152/25
f 68/153/26 65/151/26 66/152/26 67/154/26
f 72/144/27 69/155/27 70/156/27 71/145/27
f 69/155/28 68/153/28 67/154/28 70/156/28
f 63/148/29 62/157/29 58/158/29 59/149/29
f 50/159/18 75/160/18 52/161/18 51/162/18
f 53/133/18 52/161/18 75/160/18 73/134/18
f 62/163/30 61/143/30 57/146/30 58/164/30
f 72/31/40 77/27/41 68/165/42 69/166/43
f 65/167/44 68/165/42 77/27/41 64/30/45
f 57/168/18 71/33/18 76/36/18 58/38/18
f 66/169/18 60/39/18 76/36/18 67/35/18
f 54/132/18 74/131/18 78/170/18 56/171/18
f 74/131/18 73/134/18 79/172/18 78/170/18
f 73/134/18 75/160/18 80/173/18 79/172/18
f 55/174/18 80/173/18 75/160/18 50/159/18
f 52/142/37 53/175/37 81/102/37 87/68/37
f 54/176/38 56/137/38 84/61/38 82/105/38
f 54/177/39 82/107/39 81/102/39 53/175/39
f 92/178/23 103/179/23 102/180/23 88/181/23
f 95/182/24 94/183/24 90/184/24 91/185/24
f 96/186/25 95/182/25 91/185/25 97/187/25
f 99/188/26 96/186/26 97/187/26 98/189/26
f 103/179/27 100/190/27 101/191/27 102/180/27
f 100/190/28 99/188/28 98/189/28 101/191/28
f 94/183/29 93/192/29 89/193/29 90/184/29
f 93/194/30 92/178/30 88/181/30 89/195/30
f 103/44/40 105/40/41 99/196/42 100/197/43
f 96/198/44 99/196/42 105/40/41 95/43/45
f 88/199/18 102/46/18 104/49/18 89/51/18
f 97/200/18 91/52/18 104/49/18 98/48/18
